# xmcd CD database file
#
# Track frame offsets:
#	150
#	13385
#	25712
#	38842
#	52837
#	66667
#	80612
#	93197
#	106425
#	119530
#	133755
#	148160
#	162090
#	174507
#	186812
#	199652
#	213602
#	228235
#
# Disc length: 3234 seconds
#
# Revision: 8
# Processed by: cddbd v1.5.2PL0 Copyright (c) Steve Scherf et al.
# Submitted via: CDex 1.70beta2
#
DISCID=010ca012
DTITLE=Count Basie - The Complete Decca Recordings disc 3
DYEAR=1939
DGENRE=Jazz
TTITLE0=My Heart Belongs To Daddy
TTITLE1=Sing For Your Supper
TTITLE2=Oh! Red
TTITLE3=Fare Thee Honey, Fare Thee Well - 1st take
TTITLE4=Fare Thee Honey, Fare Thee Well - 2nd take
TTITLE5=Dupree Blues
TTITLE6=When The Sun Goes Down - 1st take
TTITLE7=When The Sun Goes Down - 2nd take
TTITLE8=Red Wagon
TTITLE9=You Can Depend On Me
TTITLE10=Cherokee - Part 1
TTITLE11=Cherokee - Part 2
TTITLE12=Blame It On My Last Affair - 1st take
TTITLE13=Blame It On My Last Affair - 2nd take
TTITLE14=Jive At Five
TTITLE15=Thursday
TTITLE16=Evil Blues
TTITLE17=Oh, Lady Be Good
EXTD=3CD: GRP Records/Decca GRD-3-611 (1992-03-17), UPC 011105061124. YEAR: 1939
EXTT0=
EXTT1=
EXTT2=
EXTT3=
EXTT4=
EXTT5=
EXTT6=
EXTT7=
EXTT8=
EXTT9=
EXTT10=
EXTT11=
EXTT12=
EXTT13=
EXTT14=
EXTT15=
EXTT16=
EXTT17=
PLAYORDER=
